<svg xmlns="http://www.w3.org/2000/svg" viewBox="0 0 512 512" role="img" aria-labelledby="title desc">
  <title id="title">Annie launcher icon</title>
  <desc id="desc">A bold white smiling speech cloud on Arborwise green.</desc>
  <defs>
    <radialGradient id="bg" cx="50%" cy="42%" r="72%">
      <stop offset="0" stop-color="#24583d"/>
      <stop offset="1" stop-color="#17402b"/>
    </radialGradient>
    <filter id="shadow" x="-20%" y="-20%" width="140%" height="150%">
      <feDropShadow dx="0" dy="10" stdDeviation="10" flood-color="#081d13" flood-opacity=".42"/>
    </filter>
  </defs>
  <rect width="512" height="512" rx="96" fill="url(#bg)"/>
  <circle cx="256" cy="256" r="210" fill="#f6f1e6"/>
  <g filter="url(#shadow)" fill="#fff" stroke="#0e2b1d" stroke-width="18" stroke-linejoin="round">
    <circle cx="142" cy="246" r="76"/>
    <circle cx="194" cy="192" r="80"/>
    <circle cx="256" cy="174" r="88"/>
    <circle cx="318" cy="192" r="80"/>
    <circle cx="370" cy="246" r="76"/>
    <circle cx="346" cy="316" r="70"/>
    <circle cx="166" cy="316" r="70"/>
    <rect x="142" y="180" width="228" height="172" rx="72"/>
    <path d="M285 338 L357 405 L266 355 Z"/>
  </g>
  <g fill="#0e2b1d">
    <circle cx="218" cy="260" r="17"/>
    <circle cx="294" cy="260" r="17"/>
  </g>
  <g fill="#fff">
    <circle cx="212" cy="254" r="5"/>
    <circle cx="288" cy="254" r="5"/>
  </g>
  <path d="M205 300 Q256 340 307 300" fill="none" stroke="#0e2b1d" stroke-width="14" stroke-linecap="round"/>
  <path d="M362 150 L369 169 L389 176 L369 183 L362 203 L355 183 L335 176 L355 169 Z" fill="#e8c56a" stroke="#0e2b1d" stroke-width="5" stroke-linejoin="round"/>
</svg>
